<?xml version="1.0" standalone="no"?>
<!DOCTYPE svg PUBLIC "-//W3C//DTD SVG 20010904//EN"
 "http://www.w3.org/TR/2001/REC-SVG-20010904/DTD/svg10.dtd">
<svg version="1.0" xmlns="http://www.w3.org/2000/svg"
 width="500.000000pt" height="500.000000pt" viewBox="0 0 500.000000 500.000000"
 preserveAspectRatio="xMidYMid meet">
<metadata>
Created by potrace 1.14, written by Peter Selinger 2001-2017
</metadata>
<g transform="translate(0.000000,500.000000) scale(0.100000,-0.100000)"
fill="#000000" stroke="none">
<path d="M0 3855 c0 -630 3 -1145 8 -1145 4 0 130 38 279 85 149 46 302 89
339 96 236 41 488 -76 620 -287 50 -81 147 -359 165 -477 18 -115 -16 -253
-87 -358 -20 -28 -34 -52 -32 -53 2 -2 24 -15 50 -30 172 -100 276 -269 400
-651 71 -217 82 -275 61 -296 -10 -10 -284 -99 -351 -113 -56 -13 -75 17 -141
229 -95 302 -123 366 -199 447 -54 58 -101 85 -175 99 -61 11 -167 2 -167 -15
0 -6 59 -199 130 -429 72 -229 130 -423 130 -430 0 -33 -34 -50 -204 -102 -98
-30 -187 -55 -197 -55 -10 0 -25 10 -33 22 -8 13 -143 437 -301 943 -157 506
-288 925 -290 930 -2 6 -4 -502 -4 -1127 l-1 -1138 2500 0 2500 0 0 880 0 880
-51 -40 c-121 -95 -306 -160 -458 -160 -166 0 -294 53 -411 170 -94 94 -133
166 -195 365 -38 120 -48 169 -52 246 -8 144 26 260 100 341 l34 37 -31 7
c-153 32 -295 197 -371 429 -88 271 -47 474 135 655 90 91 154 130 275 171
100 34 289 34 386 1 166 -57 299 -191 372 -373 52 -132 71 -225 71 -354 0
-136 -13 -188 -70 -267 -33 -46 -33 -48 -11 -48 65 0 199 -97 258 -186 19 -29
19 -14 19 1109 l0 1137 -2500 0 -2500 0 0 -1145z m2998 -247 c5 -7 135 -415
288 -905 221 -710 283 -899 305 -925 25 -31 31 -33 85 -32 33 1 79 4 104 9 35
5 49 4 58 -7 6 -8 32 -81 58 -163 37 -119 44 -152 35 -171 -8 -18 -34 -31
-121 -59 -189 -61 -303 -65 -419 -14 -69 29 -160 128 -205 221 -19 40 -163
487 -320 992 -261 840 -285 921 -272 941 10 15 46 32 118 54 57 18 128 41 158
51 65 22 114 25 128 8z m-576 -897 c130 -50 239 -152 292 -273 13 -29 54 -151
91 -271 69 -225 73 -257 35 -277 -10 -6 -157 -53 -326 -105 -169 -52 -309 -97
-311 -99 -7 -7 90 -302 108 -327 64 -90 220 -74 270 27 20 42 21 53 12 98 -6
28 -14 58 -17 66 -4 9 -1 23 6 33 16 21 325 119 350 111 21 -6 53 -102 62
-189 24 -209 -102 -426 -305 -523 -252 -121 -531 -85 -704 92 -33 34 -72 86
-87 116 -14 30 -84 240 -154 465 -118 377 -129 417 -132 502 -11 257 159 474
438 560 101 31 284 28 372 -6z"/>
<path d="M2125 2336 c-83 -50 -94 -110 -47 -262 l32 -102 147 46 c82 25 150
47 152 49 7 5 -51 186 -71 220 -43 73 -137 94 -213 49z"/>
<path d="M4076 3585 c-127 -45 -154 -137 -95 -322 38 -118 58 -159 96 -195 57
-54 127 -62 210 -24 110 52 130 140 74 323 -62 201 -148 267 -285 218z"/>
<path d="M4376 2626 c-86 -32 -144 -125 -133 -214 9 -70 93 -322 121 -363 66
-96 228 -97 318 -2 60 63 62 124 9 293 -50 161 -58 179 -86 217 -52 68 -151
98 -229 69z"/>
<path d="M543 2429 l-92 -30 13 -42 c61 -199 190 -613 192 -615 7 -10 206 62
241 87 43 31 73 89 73 141 0 49 -109 381 -137 418 -61 80 -137 91 -290 41z"/>
</g>
</svg>
